<svg width="17" height="19" viewBox="0 0 17 19" fill="none" xmlns="http://www.w3.org/2000/svg">
<path d="M10.2761 3.48794C10.2761 3.06923 10.1098 2.66767 9.81368 2.37159C9.51761 2.07552 9.11605 1.90919 8.69734 1.90919C8.27863 1.90919 7.87707 2.07552 7.58099 2.37159C7.28492 2.66767 7.11859 3.06923 7.11859 3.48794H6.06609C6.06609 2.79009 6.34331 2.12082 6.83676 1.62736C7.33022 1.13391 7.99949 0.856689 8.69734 0.856689C9.39519 0.856689 10.0645 1.13391 10.5579 1.62736C11.0514 2.12082 11.3286 2.79009 11.3286 3.48794H16.0648C16.2044 3.48794 16.3383 3.54338 16.437 3.64207C16.5356 3.74077 16.5911 3.87462 16.5911 4.01419C16.5911 4.15376 16.5356 4.28761 16.437 4.3863C16.3383 4.485 16.2044 4.54044 16.0648 4.54044H15.4818L14.1177 16.36C14.0583 16.873 13.8124 17.3463 13.4268 17.6898C13.0412 18.0332 12.5428 18.223 12.0264 18.2229H5.36828C4.85187 18.223 4.35345 18.0332 3.96784 17.6898C3.58224 17.3463 3.33635 16.873 3.27696 16.36L1.91187 4.54044H1.32984C1.20667 4.54048 1.08739 4.49732 0.992766 4.41847C0.898145 4.33961 0.834179 4.23007 0.812009 4.10891L0.803589 4.01419C0.803589 3.87462 0.859033 3.74077 0.957724 3.64207C1.05642 3.54338 1.19027 3.48794 1.32984 3.48794H10.2761ZM14.4208 4.54044H2.97279L4.3221 16.239C4.3518 16.4956 4.47482 16.7323 4.66773 16.904C4.86065 17.0758 5.10998 17.1706 5.36828 17.1704H12.0264C12.2845 17.1703 12.5336 17.0754 12.7263 16.9037C12.919 16.7319 13.0418 16.4954 13.0715 16.239L14.4208 4.54044ZM7.11859 7.17169C7.37645 7.17169 7.59221 7.33483 7.63642 7.54954L7.64484 7.63268V14.0792C7.64484 14.3329 7.40908 14.5392 7.11859 14.5392C6.86073 14.5392 6.64496 14.3761 6.60076 14.1613L6.59234 14.0782V7.63374C6.59234 7.37903 6.8281 7.17274 7.11859 7.17274V7.17169ZM10.2761 7.17169C10.534 7.17169 10.7497 7.33483 10.7939 7.54954L10.8023 7.63268V14.0792C10.8023 14.3329 10.5666 14.5392 10.2761 14.5392C10.0182 14.5392 9.80246 14.3761 9.75826 14.1613L9.74984 14.0782V7.63374C9.74984 7.37903 9.9856 7.17274 10.2761 7.17274V7.17169Z" fill="#F25F4C"/>
</svg>
