<svg width="20" height="20" viewBox="0 0 20 20" fill="none" xmlns="http://www.w3.org/2000/svg">
<path d="M19.2322 4.14278L15.7999 0.692922C15.5731 0.467258 15.2661 0.340576 14.9462 0.340576C14.6262 0.340576 14.3193 0.467258 14.0925 0.692922L1.92442 12.8435L0.813446 17.6382C0.775122 17.8134 0.776435 17.9951 0.817292 18.1698C0.858148 18.3445 0.937515 18.5078 1.04959 18.6479C1.16167 18.788 1.30363 18.9013 1.46511 18.9795C1.62658 19.0577 1.80348 19.0989 1.98289 19.1C2.06649 19.1084 2.15072 19.1084 2.23432 19.1L7.08167 17.989L19.2322 5.85017C19.4579 5.62336 19.5845 5.31643 19.5845 4.99648C19.5845 4.67653 19.4579 4.36959 19.2322 4.14278ZM6.49695 16.9365L1.95365 17.8896L2.98861 13.434L12.0927 4.36498L15.6011 7.87331L6.49695 16.9365ZM16.3846 7.02546L12.8763 3.51713L14.9111 1.49399L18.361 5.00233L16.3846 7.02546Z" fill="#F25F4C"/>
</svg>
